<svg xmlns="http://www.w3.org/2000/svg" width="28" height="28" viewBox="0 0 34 34" fill="none">
<g filter="url(#filter0_bi_1_913)">
<rect x="1.25" y="1.875" width="31" height="31" rx="15.5" fill="black" fill-opacity="0.05"/>
<rect x="1.25" y="1.875" width="31" height="31" rx="15.5" stroke="url(#paint0_linear_1_913)" stroke-opacity="0.15" stroke-width="2.06667"/>
<path d="M15.4475 21.0655H18.7036L20.5889 18.0147V21.0655H23.1864L25.0718 18.0147L25.0713 21.0655H27.8214V13.6845H24.882L22.999 16.7353V13.6845H20.0062M15.4475 21.0655L20.0062 13.6845M15.4475 21.0655H12.1911M20.0062 13.6845H16.7498M13.4937 13.6845L8.93504 21.0655M13.4937 13.6845H10.2373L5.67857 21.0655H8.93504M13.4937 13.6845L16.7498 13.6845M8.93504 21.0655H12.1911M16.7498 13.6845L12.1911 21.0655" stroke="#DDDDDD" stroke-opacity="0.35"/>
</g>
<defs>
<filter id="filter0_bi_1_913" x="-7.47536" y="-6.85035" width="48.4507" height="48.4507" filterUnits="userSpaceOnUse" color-interpolation-filters="sRGB">
<feFlood flood-opacity="0" result="BackgroundImageFix"/>
<feGaussianBlur in="BackgroundImageFix" stdDeviation="3.84601"/>
<feComposite in2="SourceAlpha" operator="in" result="effect1_backgroundBlur_1_913"/>
<feBlend mode="normal" in="SourceGraphic" in2="effect1_backgroundBlur_1_913" result="shape"/>
<feColorMatrix in="SourceAlpha" type="matrix" values="0 0 0 0 0 0 0 0 0 0 0 0 0 0 0 0 0 0 127 0" result="hardAlpha"/>
<feOffset dy="5.90476"/>
<feGaussianBlur stdDeviation="2.95238"/>
<feComposite in2="hardAlpha" operator="arithmetic" k2="-1" k3="1"/>
<feColorMatrix type="matrix" values="0 0 0 0 0 0 0 0 0 0 0 0 0 0 0 0 0 0 0.75 0"/>
<feBlend mode="normal" in2="shape" result="effect2_innerShadow_1_913"/>
</filter>
<linearGradient id="paint0_linear_1_913" x1="16.75" y1="-2.43056" x2="16.75" y2="32.875" gradientUnits="userSpaceOnUse">
<stop stop-color="white"/>
<stop offset="1" stop-color="white"/>
</linearGradient>
</defs>
</svg>