<svg xmlns="http://www.w3.org/2000/svg" width="27" height="26" viewBox="0 0 27 26" fill="none">
<g filter="url(#filter0_bi_1_1065)">
<rect x="1.25" y="1" width="24" height="24" rx="12" fill="black" fill-opacity="0.05"/>
<rect x="1.25" y="1" width="24" height="24" rx="12" stroke="url(#paint0_linear_1_1065)" stroke-opacity="0.15" stroke-width="1.53529"/>
<path opacity="0.25" d="M9.36292 18.1428V16.9406L10.6587 16.807V16.767C10.2312 16.5087 9.87943 16.1926 9.60336 15.8185C9.3273 15.4445 9.12247 15.0304 8.98889 14.5762C8.86422 14.1221 8.80188 13.6456 8.80188 13.1469C8.80188 12.2831 8.97108 11.5217 9.30949 10.8627C9.6568 10.1948 10.16 9.67381 10.8189 9.29979C11.4869 8.91686 12.3017 8.72539 13.2635 8.72539C14.2431 8.72539 15.0579 8.92576 15.708 9.3265C16.367 9.71834 16.8613 10.2705 17.1908 10.9829C17.5292 11.6953 17.6984 12.5413 17.6984 13.5209H15.9618C15.9618 12.764 15.8728 12.1228 15.6946 11.5974C15.5165 11.072 15.2271 10.6757 14.8264 10.4085C14.4345 10.1324 13.9136 9.99441 13.2635 9.99441C12.6223 9.99441 12.1013 10.128 11.7006 10.3952C11.2998 10.6534 11.006 11.0319 10.8189 11.5306C10.6319 12.0293 10.5384 12.6304 10.5384 13.3339C10.5384 14.0196 10.6631 14.6208 10.9125 15.1373C11.1618 15.6449 11.5136 16.0412 11.9677 16.3261C12.4219 16.6022 12.9518 16.7402 13.5574 16.7402H17.124V18.1428H9.36292ZM11.8876 13.5209V7.85712H12.8227V13.5209H11.8876ZM13.7043 13.5209V7.85712H14.6394V13.5209H13.7043Z" fill="white"/>
</g>
<defs>
<filter id="filter0_bi_1_1065" x="-76.2824" y="-76.5324" width="179.065" height="179.065" filterUnits="userSpaceOnUse" color-interpolation-filters="sRGB">
<feFlood flood-opacity="0" result="BackgroundImageFix"/>
<feGaussianBlur in="BackgroundImageFix" stdDeviation="38.3824"/>
<feComposite in2="SourceAlpha" operator="in" result="effect1_backgroundBlur_1_1065"/>
<feBlend mode="normal" in="SourceGraphic" in2="effect1_backgroundBlur_1_1065" result="shape"/>
<feColorMatrix in="SourceAlpha" type="matrix" values="0 0 0 0 0 0 0 0 0 0 0 0 0 0 0 0 0 0 127 0" result="hardAlpha"/>
<feOffset dy="7.67647"/>
<feGaussianBlur stdDeviation="3.83824"/>
<feComposite in2="hardAlpha" operator="arithmetic" k2="-1" k3="1"/>
<feColorMatrix type="matrix" values="0 0 0 0 0 0 0 0 0 0 0 0 0 0 0 0 0 0 0.75 0"/>
<feBlend mode="normal" in2="shape" result="effect2_innerShadow_1_1065"/>
</filter>
<linearGradient id="paint0_linear_1_1065" x1="13.25" y1="-2.33333" x2="13.25" y2="25" gradientUnits="userSpaceOnUse">
<stop stop-color="white"/>
<stop offset="1" stop-color="white"/>
</linearGradient>
</defs>
</svg>